<svg xmlns="http://www.w3.org/2000/svg" viewBox="-28.439999999999998 37.28 566.4363636350631 197.12" width="566.4363636350631" height="197.12" style="display: block; max-width: 100%; height: auto; overflow: visible;">
      <defs>
        
        
      <pattern id="texture-dots" x="-2.7181818175315584" y="-16.060000000000002" width="33" height="33" patternUnits="userSpaceOnUse">
        <circle cx="16.5" cy="16.5" r="1.5" fill="#ffffff" fill-opacity="0.2"/>
      </pattern>
    
        <style>
          
        </style>
      </defs>
      <rect x="-28.439999999999998" y="37.28" width="566.4363636350631" height="197.12" fill="#000000" rx="21" />
      <rect x="-4.439999999999998" y="61.28" width="518.4363636350631" height="149.12"
             fill="url(#texture-dots)"
             class="texture-overlay texture-dots"
             data-texture="dots"
             data-color="#ffffff"
             data-size="33"
             data-opacity="0.2"
             pointer-events="none"/>
      <g transform="translate(0, 0)">
      
      <path
        d="M21.16 159.48L21.16 159.48Q16 159.48 13.78 157.62Q11.56 155.76 11.56 152.76L11.56 152.76Q11.56 150.36 12.76 147.36Q13.96 144.36 15.88 141.12L15.88 141.12Q20.08 133.92 25.42 126.06Q30.76 118.20 35.92 110.52L35.92 110.52Q38.68 106.32 41.74 101.94Q44.80 97.56 47.50 93.42Q50.20 89.28 51.76 85.92L51.76 85.92Q50.56 85.80 49.36 85.80Q48.16 85.80 46.84 85.80L46.84 85.80Q41.68 85.80 36.16 86.58Q30.64 87.36 25.90 89.04Q21.16 90.72 18.28 93.42Q15.40 96.12 15.40 99.96L15.40 99.96Q15.40 102.36 16.78 103.80Q18.16 105.24 19.90 106.08Q21.64 106.92 22.48 107.52L22.48 107.52Q23.44 108.12 23.44 108.48L23.44 108.48Q23.44 108.72 22.96 108.72L22.96 108.72Q22 108.72 19.54 107.46Q17.08 106.20 15.04 103.92Q13 101.64 12.88 98.64L12.88 98.64Q12.88 98.40 12.64 97.92Q12.40 97.44 12.40 97.08L12.40 97.08Q12.16 92.52 14.68 89.40Q17.20 86.28 21.58 84.30Q25.96 82.32 31.36 81.42Q36.76 80.52 42.16 80.52L42.16 80.52Q48.16 80.52 53.56 81.48L53.56 81.48Q53.68 81 53.74 80.64Q53.80 80.28 53.80 79.92L53.80 79.92Q53.80 79.32 53.56 78.84L53.56 78.84Q53.44 78.60 53.44 78.24L53.44 78.24Q53.44 77.28 54.52 77.28L54.52 77.28Q55.12 77.28 55.78 77.70Q56.44 78.12 56.80 79.20L56.80 79.20Q56.92 79.44 56.92 80.04L56.92 80.04Q56.92 81 56.56 82.08L56.56 82.08Q58 82.56 59.14 83.04Q60.28 83.52 61.36 84L61.36 84Q62.32 84.36 63.52 85.50Q64.72 86.64 64.72 87.36L64.72 87.36Q64.72 87.96 63.76 87.96L63.76 87.96Q63.28 87.96 62.56 87.84Q61.84 87.72 60.88 87.36L60.88 87.36Q59.68 87 58.36 86.70Q57.04 86.40 55.60 86.16L55.60 86.16Q53.68 91.32 49.84 98.34Q46 105.36 41.56 111.96L41.56 111.96Q37.60 117.96 33.58 124.20Q29.56 130.44 26.26 136.44Q22.96 142.44 21.04 147.84L21.04 147.84Q20.56 149.40 20.32 150.66Q20.08 151.92 20.08 152.88L20.08 152.88Q20.08 156.72 23.80 156.72L23.80 156.72Q27.04 156.72 32.32 154.20Q37.60 151.68 43.12 147.96L43.12 147.96Q53.08 141 62.02 132.24Q70.96 123.48 77.92 113.64L77.92 113.64Q77.80 112.20 77.74 110.58Q77.68 108.96 77.68 107.16L77.68 107.16Q77.68 104.28 77.86 101.28Q78.04 98.28 78.52 96L78.52 96Q78.64 95.04 79.66 93.42Q80.68 91.80 82.06 90.48Q83.44 89.16 84.52 89.16L84.52 89.16Q85.60 89.16 86.26 90.60Q86.92 92.04 86.92 95.64L86.92 95.64Q86.92 99.12 86.26 103.74Q85.60 108.36 83.44 112.80L83.44 112.80Q83.32 119.76 84.82 126.30Q86.32 132.84 89.14 138Q91.96 143.16 95.56 146.10Q99.16 149.04 103.24 148.92L103.24 148.92Q107.80 148.80 111.46 145.62Q115.12 142.44 117.82 137.10Q120.52 131.76 121.96 125.40Q123.40 119.04 123.40 112.68L123.40 112.68Q123.40 106.32 121.78 100.62Q120.16 94.92 116.68 91.20L116.68 91.20Q112.84 87.12 106.84 87.12L106.84 87.12Q106.36 87.12 105.82 87.12Q105.28 87.12 104.68 87.24L104.68 87.24Q101.68 87.60 99.40 89.40L99.40 89.40Q98.92 89.64 98.56 89.64L98.56 89.64Q97.12 89.64 97.12 88.44L97.12 88.44Q97.12 87.96 97.60 87.60L97.60 87.60Q104.20 83.04 110.56 83.04L110.56 83.04Q115.24 83.04 119.08 85.56L119.08 85.56Q124 88.68 126.22 94.80Q128.44 100.92 128.44 108.24L128.44 108.24Q128.44 115.80 126.28 123.78Q124.12 131.76 120.28 138.48Q116.44 145.20 111.16 149.34Q105.88 153.48 99.76 153.48L99.76 153.48Q95.08 153.48 90.82 150.90Q86.56 148.32 83.44 143.64Q80.32 138.96 78.70 132.84Q77.08 126.72 77.56 119.76L77.56 119.76Q73.72 124.56 68.38 130.02Q63.04 135.48 57.22 140.58Q51.40 145.68 46.12 149.52L46.12 149.52Q40 153.84 33.82 156.66Q27.64 159.48 21.16 159.48Z"
        fill="#ffffff"
        stroke="#ffffff"
        stroke-width="2"
        stroke-linecap="round"
        stroke-linejoin="round"
        
        
        class="sig-path"
        stroke-dasharray="808"
        stroke-dashoffset="808"
        fill-opacity="0"
      >
        <animate
          attributeName="stroke-dashoffset"
          from="808"
          to="0"
          dur="0.4347826086956522s"
          begin="0s"
          fill="freeze"
        />
      
        <animate
          attributeName="fill-opacity"
          from="0"
          to="1"
          dur="0.3s"
          begin="0.2608695652173913s"
          fill="freeze"
        />
      </path>
    
      <path
        d="M163.84 151.20L163.84 151.20Q161.68 151.20 160 150.24Q158.32 149.28 157.48 146.64L157.48 146.64Q157.36 146.04 157.18 145.26Q157 144.48 157 143.64L157 143.64Q157 140.76 157.78 137.16Q158.56 133.56 159.52 131.16L159.52 131.16Q159.04 131.52 157.84 133.56Q156.64 135.60 154.84 138.30Q153.04 141 150.82 143.70Q148.60 146.40 146.02 148.14Q143.44 149.88 140.56 149.88L140.56 149.88Q138.64 149.88 135.94 148.80Q133.24 147.72 132.04 145.80L132.04 145.80Q130.84 143.88 130.84 141L130.84 141Q130.84 137.52 132.40 133.38Q133.96 129.24 136.36 125.64L136.36 125.64Q137.20 124.44 138.28 122.76Q139.36 121.08 140.44 119.82Q141.52 118.56 142 118.44L142 118.44Q143.44 117.96 145.36 117.96L145.36 117.96Q147.40 117.96 148.36 118.44L148.36 118.44Q149.20 118.80 149.20 119.28L149.20 119.28Q149.20 119.88 148.24 120.84L148.24 120.84Q146.92 122.04 144.64 124.44Q142.36 126.84 140.14 130.20Q137.92 133.56 136.48 137.64L136.48 137.64Q135.28 140.88 135.28 143.28L135.28 143.28Q135.28 147.48 138.64 147.48L138.64 147.48Q141.52 147.48 144.76 145.08Q148 142.68 151.06 139.20Q154.12 135.72 156.58 132.30Q159.04 128.88 160.36 126.84L160.36 126.84Q161.56 125.16 163.06 122.52Q164.56 119.88 166 117.36Q167.44 114.84 168.28 113.64L168.28 113.64Q169.12 113.64 170.86 113.94Q172.60 114.24 173.86 114.96Q175.12 115.68 174.52 116.76L174.52 116.76Q173.80 117.96 172.30 120.48Q170.80 123 169.30 125.58Q167.80 128.16 166.96 129.72L166.96 129.72Q164.08 135.24 163.24 141.60L163.24 141.60Q163.12 142.08 163.12 142.50Q163.12 142.92 163.12 143.40L163.12 143.40Q163.12 148.20 166.36 148.20L166.36 148.20Q168.16 148.20 171.16 146.04Q174.16 143.88 177.34 140.88Q180.52 137.88 183.10 135.06Q185.68 132.24 186.64 130.80L186.64 130.80Q186.88 130.44 187.36 130.44L187.36 130.44Q187.84 130.44 188.14 130.80Q188.44 131.16 188.08 131.76L188.08 131.76Q187 133.80 184.42 136.86Q181.84 139.92 178.72 142.98Q175.60 146.04 172.60 148.20L172.60 148.20Q171.04 149.40 168.64 150.30Q166.24 151.20 163.84 151.20Z"
        fill="#ffffff"
        stroke="#ffffff"
        stroke-width="2"
        stroke-linecap="round"
        stroke-linejoin="round"
        
        
        class="sig-path"
        stroke-dasharray="287"
        stroke-dashoffset="287"
        fill-opacity="0"
      >
        <animate
          attributeName="stroke-dashoffset"
          from="287"
          to="0"
          dur="0.4347826086956522s"
          begin="0.4347826086956522s"
          fill="freeze"
        />
      
        <animate
          attributeName="fill-opacity"
          from="0"
          to="1"
          dur="0.3s"
          begin="0.6956521739130435s"
          fill="freeze"
        />
      </path>
    
      <path
        d="M190.96 151.20L190.96 151.20Q188.80 151.20 187.06 150.24Q185.32 149.28 184.48 146.64L184.48 146.64Q184.36 146.28 184.30 145.92Q184.24 145.56 184.24 145.08L184.24 145.08Q184.24 142.68 185.32 139.08Q186.40 135.48 187.96 132.12L187.96 132.12Q187.24 133.08 186.28 134.46Q185.32 135.84 183.52 138L183.52 138Q183.04 138.48 182.44 138.48L182.44 138.48Q181.60 138.48 181.60 137.52L181.60 137.52Q181.60 136.80 182.08 136.32L182.08 136.32Q185.20 132.36 187.66 129.24Q190.12 126.12 191.32 123.96L191.32 123.96Q191.32 123.72 192.04 122.46Q192.76 121.20 193.96 118.92L193.96 118.92Q193 119.04 192.34 119.10Q191.68 119.16 191.20 119.16L191.20 119.16Q190.36 119.16 189.76 118.44Q189.16 117.72 189.64 116.64L189.64 116.64Q190.24 114.96 192.28 114.72Q194.32 114.48 195.88 114.36L195.88 114.36Q196 114.12 196.36 114.12L196.36 114.12Q197.80 111.48 199.12 108.96Q200.44 106.44 201.34 104.76Q202.24 103.08 202.24 102.96L202.24 102.96Q204.64 99.12 205.36 97.86Q206.08 96.60 207.28 96.36L207.28 96.36Q208.60 96.24 210.10 96.48Q211.60 96.72 212.08 97.56L212.08 97.56Q212.44 98.04 212.44 98.76L212.44 98.76Q212.44 99.84 211.96 100.86Q211.48 101.88 211 102.48L211 102.48Q210.52 103.32 209.74 103.62Q208.96 103.92 208.36 105.12L208.36 105.12Q207.16 107.40 205.72 110.04Q204.28 112.68 202.72 115.08L202.72 115.08L204.16 114.96Q207.04 114.72 209.62 114.36Q212.20 114 215.56 114.12L215.56 114.12Q216.16 114.12 216.82 114.30Q217.48 114.48 217.48 114.84L217.48 114.84Q217.48 115.32 214.36 116.16L214.36 116.16Q213.16 116.64 209.14 117.18Q205.12 117.72 200.92 118.20L200.92 118.20Q199.72 120.48 198.76 121.98Q197.80 123.48 197.44 124.20L197.44 124.20Q194.80 129.72 192.70 134.22Q190.60 138.72 190.36 141.60L190.36 141.60Q190.24 142.08 190.24 142.50Q190.24 142.92 190.24 143.40L190.24 143.40Q190.24 148.20 193.36 148.20L193.36 148.20Q195.28 148.20 198.28 146.10Q201.28 144 204.40 140.94Q207.52 137.88 210.10 135.06Q212.68 132.24 213.64 130.80L213.64 130.80Q214 130.44 214.36 130.44L214.36 130.44Q214.84 130.44 215.14 130.80Q215.44 131.16 215.20 131.76L215.20 131.76Q214.12 133.80 211.54 136.86Q208.96 139.92 205.78 142.98Q202.60 146.04 199.60 148.20L199.60 148.20Q198.04 149.40 195.70 150.30Q193.36 151.20 190.96 151.20Z"
        fill="#ffffff"
        stroke="#ffffff"
        stroke-width="2"
        stroke-linecap="round"
        stroke-linejoin="round"
        
        
        class="sig-path"
        stroke-dasharray="246"
        stroke-dashoffset="246"
        fill-opacity="0"
      >
        <animate
          attributeName="stroke-dashoffset"
          from="246"
          to="0"
          dur="0.4347826086956522s"
          begin="0.8695652173913044s"
          fill="freeze"
        />
      
        <animate
          attributeName="fill-opacity"
          from="0"
          to="1"
          dur="0.3s"
          begin="1.1304347826086958s"
          fill="freeze"
        />
      </path>
    
      <path
        d="M221.56 151.32L221.56 151.32Q218.20 151.32 215.68 149.76L215.68 149.76Q211.48 147.24 211.48 140.64L211.48 140.64Q211.48 137.88 212.44 134.28L212.44 134.28Q213.28 131.28 215.44 127.74Q217.60 124.20 220.54 120.96Q223.48 117.72 226.96 115.68Q230.44 113.64 233.92 113.64L233.92 113.64Q235.36 113.64 236.44 114L236.44 114Q237.88 114.48 238.90 115.74Q239.92 117 239.92 118.92L239.92 118.92Q239.92 120.96 238.90 121.20Q237.88 121.44 237.88 120.72L237.88 120.72Q237.88 120.48 237.94 120.24Q238 120 238 119.88L238 119.88Q238 118.92 237.46 118.14Q236.92 117.36 235.48 117.36L235.48 117.36Q233.56 117.36 230.74 119.40Q227.92 121.44 224.98 124.86Q222.04 128.28 219.82 132.36Q217.60 136.44 216.88 140.52L216.88 140.52Q216.76 141.12 216.70 141.66Q216.64 142.20 216.64 142.80L216.64 142.80Q216.64 145.56 217.90 147.42Q219.16 149.28 221.92 149.28L221.92 149.28Q225.28 149.28 228.40 146.70Q231.52 144.12 233.98 140.52Q236.44 136.92 237.64 134.16L237.64 134.16Q238.60 132 238.96 130.44Q239.32 128.88 239.32 127.80L239.32 127.80Q239.32 126.84 239.14 126.12Q238.96 125.40 238.72 124.92L238.72 124.92Q238.48 124.20 238.48 123.84L238.48 123.84Q238.48 122.88 239.26 122.28Q240.04 121.68 240.88 121.68L240.88 121.68Q241.60 121.68 242.44 122.16L242.44 122.16Q243.40 122.40 245.08 122.52Q246.76 122.64 248.68 122.64L248.68 122.64Q250.72 122.64 252.82 122.52Q254.92 122.40 256.48 122.04L256.48 122.04Q256.72 121.92 257.20 121.92L257.20 121.92Q258.04 121.92 258.04 122.40L258.04 122.40Q258.04 122.88 257.20 123.24L257.20 123.24Q253 125.16 249.70 125.28Q246.40 125.40 244 125.40L244 125.40Q244.24 128.40 242.68 131.82Q241.12 135.24 239.44 137.88L239.44 137.88Q237.40 140.88 234.76 144Q232.12 147.12 228.88 149.22Q225.64 151.32 221.56 151.32Z"
        fill="#ffffff"
        stroke="#ffffff"
        stroke-width="2"
        stroke-linecap="round"
        stroke-linejoin="round"
        
        
        class="sig-path"
        stroke-dasharray="222"
        stroke-dashoffset="222"
        fill-opacity="0"
      >
        <animate
          attributeName="stroke-dashoffset"
          from="222"
          to="0"
          dur="0.4347826086956522s"
          begin="1.3043478260869565s"
          fill="freeze"
        />
      
        <animate
          attributeName="fill-opacity"
          from="0"
          to="1"
          dur="0.3s"
          begin="1.565217391304348s"
          fill="freeze"
        />
      </path>
    
      <path
        d="M248.80 151.56L248.80 151.56Q247.96 151.56 248.32 150.72L248.32 150.72Q248.68 150 249.64 147.42Q250.60 144.84 251.86 141.24Q253.12 137.64 254.44 133.80Q255.76 129.96 256.90 126.60Q258.04 123.24 258.76 121.32L258.76 121.32Q259 120.60 259.24 119.22Q259.48 117.84 260.26 116.70Q261.04 115.56 262.96 115.56L262.96 115.56Q266.56 115.56 266.56 117.24L266.56 117.24Q266.56 117.84 265.96 119.28L265.96 119.28Q264.52 122.52 262.84 126.72Q261.16 130.92 259.84 134.64Q258.52 138.36 257.80 140.40L257.80 140.40Q259 138.72 261.70 135.60Q264.40 132.48 267.76 128.88Q271.12 125.28 274.78 121.92Q278.44 118.56 281.62 116.46Q284.80 114.36 287.08 114.36L287.08 114.36Q289.96 114.36 289.96 117.48L289.96 117.48Q289.96 118.56 289.36 120.72L289.36 120.72Q288.28 123.72 286.60 126.54Q284.92 129.36 283.60 132.48L283.60 132.48Q281.32 138.12 280.96 141.60L280.96 141.60Q280.84 142.08 280.84 142.50Q280.84 142.92 280.84 143.40L280.84 143.40Q280.84 148.20 284.08 148.20L284.08 148.20Q285.88 148.20 288.88 146.04Q291.88 143.88 295.06 140.88Q298.24 137.88 300.76 135.06Q303.28 132.24 304.24 130.80L304.24 130.80Q304.60 130.44 304.96 130.44L304.96 130.44Q305.44 130.44 305.74 130.80Q306.04 131.16 305.80 131.76L305.80 131.76Q304.72 133.80 302.14 136.86Q299.56 139.92 296.44 142.98Q293.32 146.04 290.32 148.20L290.32 148.20Q288.52 149.40 285.88 150.36Q283.24 151.32 280.60 151.20L280.60 151.20Q277.24 150.84 275.80 148.86Q274.36 146.88 274.36 144.12L274.36 144.12Q274.36 140.88 275.62 137.22Q276.88 133.56 278.44 130.32Q280 127.08 280.96 125.40L280.96 125.40Q281.92 123.48 281.92 122.40L281.92 122.40Q281.92 121.44 281.08 121.44L281.08 121.44Q280.24 121.44 278.56 122.52Q276.88 123.60 274 126.24L274 126.24Q271.36 128.52 268.36 132.18Q265.36 135.84 262.54 139.68Q259.72 143.52 257.62 146.28Q255.52 149.04 254.68 149.52L254.68 149.52Q254.08 149.88 251.98 150.72Q249.88 151.56 248.80 151.56Z"
        fill="#ffffff"
        stroke="#ffffff"
        stroke-width="2"
        stroke-linecap="round"
        stroke-linejoin="round"
        
        
        class="sig-path"
        stroke-dasharray="292"
        stroke-dashoffset="292"
        fill-opacity="0"
      >
        <animate
          attributeName="stroke-dashoffset"
          from="292"
          to="0"
          dur="0.4347826086956522s"
          begin="1.7391304347826089s"
          fill="freeze"
        />
      
        <animate
          attributeName="fill-opacity"
          from="0"
          to="1"
          dur="0.3s"
          begin="2s"
          fill="freeze"
        />
      </path>
    
      <path
        d="M297.28 194.04L297.28 194.04Q295.84 193.68 294.76 193.32L294.76 193.32Q292.48 192.12 291.52 190.62Q290.56 189.12 290.56 187.44L290.56 187.44Q290.56 184.68 292.42 181.50Q294.28 178.32 297.28 174.96L297.28 174.96Q300.28 171.36 304.90 167.64Q309.52 163.92 314.56 160.50Q319.60 157.08 323.44 154.56L323.44 154.56Q327.64 146.04 330.88 138.42Q334.12 130.80 335.44 126.72L335.44 126.72Q332.92 129.48 330.04 132.90Q327.16 136.32 325.84 137.88L325.84 137.88Q323.56 140.28 320.68 143.10Q317.80 145.92 314.62 147.90Q311.44 149.88 308.44 149.88L308.44 149.88Q306.52 149.88 304.36 148.74Q302.20 147.60 300.88 145.80L300.88 145.80Q299.08 143.40 299.08 140.88L299.08 140.88Q299.08 137.64 301.30 134.16Q303.52 130.68 307.06 127.38Q310.60 124.08 314.62 121.38Q318.64 118.68 322.30 116.82Q325.96 114.96 328.24 114.36L328.24 114.36Q330.40 113.64 333.52 113.64L333.52 113.64Q334.96 113.64 337.00 114.12Q339.04 114.60 340.66 115.62Q342.28 116.64 342.28 118.56L342.28 118.56Q342.28 119.52 341.32 119.16L341.32 119.16Q340.48 117.72 338.86 117.30Q337.24 116.88 335.56 116.88L335.56 116.88Q330.88 116.88 325.06 120Q319.24 123.12 314.68 127.32L314.68 127.32Q313.24 128.52 310.72 131.46Q308.20 134.40 306.22 137.88Q304.24 141.36 304.24 144.24L304.24 144.24Q304.24 145.80 305.08 147L305.08 147Q305.44 147.60 306.52 147.60L306.52 147.60Q308.80 147.60 312.10 145.56Q315.40 143.52 319.12 140.40Q322.84 137.28 326.38 133.74Q329.92 130.20 332.68 127.20Q335.44 124.20 336.76 122.64L336.76 122.64Q337.00 122.04 337.60 121.80Q338.20 121.56 338.92 121.56L338.92 121.56Q340.84 121.56 342.94 122.58Q345.04 123.60 344.68 124.32L344.68 124.32Q342.40 129.24 339.34 135.72Q336.28 142.20 332.92 149.28L332.92 149.28Q334.48 148.44 338.08 145.56Q341.68 142.68 346.00 138.66Q350.32 134.64 354.04 130.32L354.04 130.32Q355.48 128.76 356.20 128.76L356.20 128.76Q356.92 128.76 356.56 130.02Q356.20 131.28 354.64 133.20L354.64 133.20Q352.72 135.48 349.36 138.66Q346.00 141.84 342.28 145.14Q338.56 148.44 335.38 151.02Q332.20 153.60 330.40 154.56L330.40 154.56Q326.68 162.48 323.20 169.50Q319.72 176.52 316.84 180.84L316.84 180.84Q314.92 183.84 312.16 186.96Q309.40 190.08 306.16 192.18Q302.92 194.28 299.32 194.28L299.32 194.28Q298.84 194.28 298.36 194.22Q297.88 194.16 297.28 194.04ZM296.08 190.92L296.08 190.92Q296.80 191.40 298.18 190.92Q299.56 190.44 301.72 188.76L301.72 188.76Q306.40 185.04 309.76 180.06Q313.12 175.08 315.88 169.62Q318.64 164.16 321.16 159.12L321.16 159.12Q316.48 162.60 310.60 167.34Q304.72 172.08 299.92 176.76L299.92 176.76Q297.52 179.16 295.90 182.10Q294.28 185.04 294.28 187.44L294.28 187.44Q294.28 189.96 296.08 190.92Z"
        fill="#ffffff"
        stroke="#ffffff"
        stroke-width="2"
        stroke-linecap="round"
        stroke-linejoin="round"
        
        
        class="sig-path"
        stroke-dasharray="540"
        stroke-dashoffset="540"
        fill-opacity="0"
      >
        <animate
          attributeName="stroke-dashoffset"
          from="540"
          to="0"
          dur="0.4347826086956522s"
          begin="2.173913043478261s"
          fill="freeze"
        />
      
        <animate
          attributeName="fill-opacity"
          from="0"
          to="1"
          dur="0.3s"
          begin="2.4347826086956523s"
          fill="freeze"
        />
      </path>
    
      <path
        d="M384.04 194.40L384.04 194.40Q379.72 194.40 377.14 191.94Q374.56 189.48 374.56 185.40L374.56 185.40Q374.56 182.28 376.30 178.26Q378.04 174.24 382 169.80L382 169.80Q390.16 160.44 400.18 154.44Q410.20 148.44 421.84 144.72L421.84 144.72Q422.56 142.68 423.88 138Q425.20 133.32 426.88 127.08Q428.56 120.84 430.36 114.36L430.36 114.36Q425.68 121.56 420.28 128.34Q414.88 135.12 409.18 140.58Q403.48 146.04 397.90 149.22Q392.32 152.40 387.28 152.40L387.28 152.40Q384.28 152.40 381.94 150.60Q379.60 148.80 379 144.60L379 144.60Q378.88 143.76 378.82 142.98Q378.76 142.20 378.76 141.36L378.76 141.36Q378.76 136.08 380.56 130.32Q382.36 124.56 385.06 118.74Q387.76 112.92 390.58 107.28Q393.40 101.64 395.32 96.84L395.32 96.84Q395.56 96.48 395.56 96.18Q395.56 95.88 395.56 95.76L395.56 95.76Q395.56 95.28 395.20 95.28L395.20 95.28Q394.48 95.28 392.56 96.84L392.56 96.84Q388.48 100.20 384.16 102.60Q379.84 105 376.12 105.24L376.12 105.24L376 105.24Q374.92 105.24 374.92 104.52L374.92 104.52Q374.92 103.44 376.48 103.20L376.48 103.20Q378.52 102.96 381.46 101.34Q384.40 99.72 387.64 97.32Q390.88 94.92 393.82 92.34Q396.76 89.76 398.86 87.60Q400.96 85.44 401.56 84.24L401.56 84.24Q401.80 83.64 403.30 83.16Q404.80 82.68 406.24 82.68L406.24 82.68Q407.56 82.68 408.52 83.04Q409.48 83.40 409.24 84.24L409.24 84.24Q408.40 85.56 406.06 89.46Q403.72 93.36 400.66 98.88Q397.60 104.40 394.54 110.58Q391.48 116.76 389.14 122.82Q386.80 128.88 385.84 133.80L385.84 133.80Q385.60 135.36 385.48 136.74Q385.36 138.12 385.36 139.44L385.36 139.44Q385.36 144.24 387.04 146.22Q388.72 148.20 391.24 148.20L391.24 148.20Q395.32 148.20 400.12 144.90Q404.92 141.60 410.02 136.02Q415.12 130.44 419.92 123.54Q424.72 116.64 428.98 109.32Q433.24 102 436.36 95.40L436.36 95.40Q437.32 93.36 437.98 91.62Q438.64 89.88 439.48 88.44L439.48 88.44Q439.96 87.48 440.32 86.82Q440.68 86.16 441.16 85.92L441.16 85.92Q442.60 83.52 445.24 82.62Q447.88 81.72 450.52 81.72L450.52 81.72Q452.80 81.72 454.42 82.02Q456.04 82.32 456.76 82.44L456.76 82.44Q457.96 82.56 457.96 83.52L457.96 83.52Q457.96 84 457.48 84.42Q457 84.84 456.16 84.84L456.16 84.84Q451.48 84.36 448.54 87.84Q445.60 91.32 442.96 98.16L442.96 98.16Q442 100.44 440.50 105.18Q439 109.92 437.20 115.62Q435.40 121.32 433.66 126.96Q431.92 132.60 430.54 136.92Q429.16 141.24 428.56 143.04L428.56 143.04Q434.56 141.36 437.80 141.36L437.80 141.36Q439.12 141.36 439.60 141.72L439.60 141.72Q439.96 142.08 439.96 142.56L439.96 142.56Q439.96 143.04 439.72 143.34Q439.48 143.64 439 143.40L439 143.40Q438.52 143.16 437.56 143.16L437.56 143.16Q436 143.16 433.66 143.70Q431.32 144.24 429.34 145.08Q427.36 145.92 426.88 147.12L426.88 147.12Q420.04 164.52 412.18 174.90Q404.32 185.28 396.94 189.84Q389.56 194.40 384.04 194.40ZM387.40 191.28L387.40 191.28Q391.84 191.28 396.16 187.86Q400.48 184.44 404.44 179.04Q408.40 173.64 411.70 167.52Q415 161.40 417.46 155.88Q419.92 150.36 421.12 147L421.12 147Q411.28 150.24 402.88 155.64Q394.48 161.04 387.88 169.20L387.88 169.20Q384.16 173.64 382.60 177.54Q381.04 181.44 381.04 184.32L381.04 184.32Q381.04 187.56 382.78 189.42Q384.52 191.28 387.40 191.28Z"
        fill="#ffffff"
        stroke="#ffffff"
        stroke-width="2"
        stroke-linecap="round"
        stroke-linejoin="round"
        
        
        class="sig-path"
        stroke-dasharray="767"
        stroke-dashoffset="767"
        fill-opacity="0"
      >
        <animate
          attributeName="stroke-dashoffset"
          from="767"
          to="0"
          dur="0.4347826086956522s"
          begin="2.6086956521739135s"
          fill="freeze"
        />
      
        <animate
          attributeName="fill-opacity"
          from="0"
          to="1"
          dur="0.3s"
          begin="2.8695652173913047s"
          fill="freeze"
        />
      </path>
    
      <path
        d="M473.56 151.20L473.56 151.20Q471.40 151.20 469.72 150.24Q468.04 149.28 467.20 146.64L467.20 146.64Q467.08 146.04 466.90 145.26Q466.72 144.48 466.72 143.64L466.72 143.64Q466.72 140.76 467.50 137.16Q468.28 133.56 469.24 131.16L469.24 131.16Q468.76 131.52 467.56 133.56Q466.36 135.60 464.56 138.30Q462.76 141 460.54 143.70Q458.32 146.40 455.74 148.14Q453.16 149.88 450.28 149.88L450.28 149.88Q448.36 149.88 445.66 148.80Q442.96 147.72 441.76 145.80L441.76 145.80Q440.56 143.88 440.56 141L440.56 141Q440.56 137.52 442.12 133.38Q443.68 129.24 446.08 125.64L446.08 125.64Q446.92 124.44 448 122.76Q449.08 121.08 450.16 119.82Q451.24 118.56 451.72 118.44L451.72 118.44Q453.16 117.96 455.08 117.96L455.08 117.96Q457.12 117.96 458.08 118.44L458.08 118.44Q458.92 118.80 458.92 119.28L458.92 119.28Q458.92 119.88 457.96 120.84L457.96 120.84Q456.64 122.04 454.36 124.44Q452.08 126.84 449.86 130.20Q447.64 133.56 446.20 137.64L446.20 137.64Q445 140.88 445 143.28L445 143.28Q445 147.48 448.36 147.48L448.36 147.48Q451.24 147.48 454.48 145.08Q457.72 142.68 460.78 139.20Q463.84 135.72 466.30 132.30Q468.76 128.88 470.08 126.84L470.08 126.84Q471.28 125.16 472.78 122.52Q474.28 119.88 475.72 117.36Q477.16 114.84 478 113.64L478 113.64Q478.84 113.64 480.58 113.94Q482.32 114.24 483.58 114.96Q484.84 115.68 484.24 116.76L484.24 116.76Q483.52 117.96 482.02 120.48Q480.52 123 479.02 125.58Q477.52 128.16 476.68 129.72L476.68 129.72Q473.80 135.24 472.96 141.60L472.96 141.60Q472.84 142.08 472.84 142.50Q472.84 142.92 472.84 143.40L472.84 143.40Q472.84 148.20 476.08 148.20L476.08 148.20Q477.88 148.20 480.88 146.04Q483.88 143.88 487.06 140.88Q490.24 137.88 492.82 135.06Q495.40 132.24 496.36 130.80L496.36 130.80Q496.60 130.44 497.08 130.44L497.08 130.44Q497.56 130.44 497.86 130.80Q498.16 131.16 497.80 131.76L497.80 131.76Q496.72 133.80 494.14 136.86Q491.56 139.92 488.44 142.98Q485.32 146.04 482.32 148.20L482.32 148.20Q480.76 149.40 478.36 150.30Q475.96 151.20 473.56 151.20Z"
        fill="#ffffff"
        stroke="#ffffff"
        stroke-width="2"
        stroke-linecap="round"
        stroke-linejoin="round"
        
        
        class="sig-path"
        stroke-dasharray="287"
        stroke-dashoffset="287"
        fill-opacity="0"
      >
        <animate
          attributeName="stroke-dashoffset"
          from="287"
          to="0"
          dur="0.4347826086956522s"
          begin="3.043478260869566s"
          fill="freeze"
        />
      
        <animate
          attributeName="fill-opacity"
          from="0"
          to="1"
          dur="0.3s"
          begin="3.304347826086957s"
          fill="freeze"
        />
      </path>
    
      </g>
    </svg>